[Header]
FileType HTR
DataType HTRS
FileVersion 1
NumSegments 64
NumFrames 3
DataFrameRate 24
EulerRotationOrder ZYX
CalibrationUnits mm
RotationUnits Degrees
GlobalAxisofGravity Y
BoneLengthAxis Y
ScaleFactor 1.0
[SegmentNames&Hierarchy]
Hips	GLOBAL
Spine	Hips
Spine1	Spine
Spine2	Spine1
Neck	Spine2
Head	Neck
LeftEye	Head
RightEye	Head
LeftShoulder	Spine2
LeftArm	LeftShoulder
LeftForeArm	LeftArm
LeftHand	LeftForeArm
LeftHandThumb1	LeftHand
LeftHandThumb2	LeftHandThumb1
LeftHandThumb3	LeftHandThumb2
LeftHandThumb4	LeftHandThumb3
LeftHandIndex1	LeftHand
LeftHandIndex2	LeftHandIndex1
LeftHandIndex3	LeftHandIndex2
LeftHandIndex4	LeftHandIndex3
LeftHandMiddle1	LeftHand
LeftHandMiddle2	LeftHandMiddle1
LeftHandMiddle3	LeftHandMiddle2
LeftHandMiddle4	LeftHandMiddle3
LeftHandRing1	LeftHand
LeftHandRing2	LeftHandRing1
LeftHandRing3	LeftHandRing2
LeftHandRing4	LeftHandRing3
LeftHandPinky1	LeftHand
LeftHandPinky2	LeftHandPinky1
LeftHandPinky3	LeftHandPinky2
LeftHandPinky4	LeftHandPinky3
RightShoulder	Spine2
RightArm	RightShoulder
RightForeArm	RightArm
RightHand	RightForeArm
RightHandPinky1	RightHand
RightHandPinky2	RightHandPinky1
RightHandPinky3	RightHandPinky2
RightHandPinky4	RightHandPinky3
RightHandRing1	RightHand
RightHandRing2	RightHandRing1
RightHandRing3	RightHandRing2
RightHandRing4	RightHandRing3
RightHandMiddle1	RightHand
RightHandMiddle2	RightHandMiddle1
RightHandMiddle3	RightHandMiddle2
RightHandMiddle4	RightHandMiddle3
RightHandIndex1	RightHand
RightHandIndex2	RightHandIndex1
RightHandIndex3	RightHandIndex2
RightHandIndex4	RightHandIndex3
RightHandThumb1	RightHand
RightHandThumb2	RightHandThumb1
RightHandThumb3	RightHandThumb2
RightHandThumb4	RightHandThumb3
LeftUpLeg	Hips
LeftLeg	LeftUpLeg
LeftFoot	LeftLeg
LeftToeBase	LeftFoot
RightUpLeg	Hips
RightLeg	RightUpLeg
RightFoot	RightLeg
RightToeBase	RightFoot
[BasePosition]
Hips	0	0	0	0	0	0	1
Spine	0	0	0	0	0	0	1
Spine1	0	0	0	0	0	0	1
Spine2	0	0	0	0	0	0	1
Neck	0	0	0	0	0	0	1
Head	0	0	0	0	0	0	1
LeftEye	0	0	0	0	0	0	1
RightEye	0	0	0	0	0	0	1
LeftShoulder	0	0	0	0	0	0	1
LeftArm	0	0	0	0	0	0	1
LeftForeArm	0	0	0	0	0	0	1
LeftHand	0	0	0	0	0	0	1
LeftHandThumb1	0	0	0	0	0	0	1
LeftHandThumb2	0	0	0	0	0	0	1
LeftHandThumb3	0	0	0	0	0	0	1
LeftHandThumb4	0	0	0	0	0	0	1
LeftHandIndex1	0	0	0	0	0	0	1
LeftHandIndex2	0	0	0	0	0	0	1
LeftHandIndex3	0	0	0	0	0	0	1
LeftHandIndex4	0	0	0	0	0	0	1
LeftHandMiddle1	0	0	0	0	0	0	1
LeftHandMiddle2	0	0	0	0	0	0	1
LeftHandMiddle3	0	0	0	0	0	0	1
LeftHandMiddle4	0	0	0	0	0	0	1
LeftHandRing1	0	0	0	0	0	0	1
LeftHandRing2	0	0	0	0	0	0	1
LeftHandRing3	0	0	0	0	0	0	1
LeftHandRing4	0	0	0	0	0	0	1
LeftHandPinky1	0	0	0	0	0	0	1
LeftHandPinky2	0	0	0	0	0	0	1
LeftHandPinky3	0	0	0	0	0	0	1
LeftHandPinky4	0	0	0	0	0	0	1
RightShoulder	0	0	0	0	0	0	1
RightArm	0	0	0	0	0	0	1
RightForeArm	0	0	0	0	0	0	1
RightHand	0	0	0	0	0	0	1
RightHandPinky1	0	0	0	0	0	0	1
RightHandPinky2	0	0	0	0	0	0	1
RightHandPinky3	0	0	0	0	0	0	1
RightHandPinky4	0	0	0	0	0	0	1
RightHandRing1	0	0	0	0	0	0	1
RightHandRing2	0	0	0	0	0	0	1
RightHandRing3	0	0	0	0	0	0	1
RightHandRing4	0	0	0	0	0	0	1
RightHandMiddle1	0	0	0	0	0	0	1
RightHandMiddle2	0	0	0	0	0	0	1
RightHandMiddle3	0	0	0	0	0	0	1
RightHandMiddle4	0	0	0	0	0	0	1
RightHandIndex1	0	0	0	0	0	0	1
RightHandIndex2	0	0	0	0	0	0	1
RightHandIndex3	0	0	0	0	0	0	1
RightHandIndex4	0	0	0	0	0	0	1
RightHandThumb1	0	0	0	0	0	0	1
RightHandThumb2	0	0	0	0	0	0	1
RightHandThumb3	0	0	0	0	0	0	1
RightHandThumb4	0	0	0	0	0	0	1
LeftUpLeg	0	0	0	0	0	0	1
LeftLeg	0	0	0	0	0	0	1
LeftFoot	0	0	0	0	0	0	1
LeftToeBase	0	0	0	0	0	0	1
RightUpLeg	0	0	0	0	0	0	1
RightLeg	0	0	0	0	0	0	1
RightFoot	0	0	0	0	0	0	1
RightToeBase	0	0	0	0	0	0	1
[Hips]
35	1.16345346	679.3653564	306.0824585	-3.569830418	0.8154318929	-1.27759397	1.0
36	1.291827083	707.5684814	274.7776794	-4.215035439	0.5893931985	-1.472315907	1.0
37	1.455931783	741.3966064	239.0821991	-4.232821465	0.3538914919	-1.673779726	1.0
[Spine]
35	0	101.8159943	1.315000057	14.30076313	5.081894398	2.776436806	1.0
36	0	101.8159943	1.315000057	13.48252678	9.419630051	3.883775234	1.0
37	0	101.8159943	1.315000057	11.58473873	13.07211876	4.365262508	1.0
[Spine1]
35	0	100.8349991	-10.00800037	-19.22429848	5.817545414	-2.067891121	1.0
36	0	100.8349991	-10.00800037	-17.66736794	9.908983231	-3.198706865	1.0
37	0	100.8349991	-10.00800037	-14.09971905	13.41673279	-3.249217033	1.0
[Spine2]
35	0	91	-13.73399925	-1.921769977	6.169256687	-0.2107201517	1.0
36	0	91	-13.73399925	-1.63178432	10.4031353	-0.2997588217	1.0
37	0	91	-13.73399925	-0.9785920382	13.81842804	-0.2113904357	1.0
[Neck]
35	0	166.7169952	-25.16200066	0.8140262961	-6.234152794	0.2744050324	1.0
36	0	166.7169952	-25.16200066	0.8734970093	-10.51668358	0.5354906321	1.0
37	0	166.7169952	-25.16200066	0.7651824951	-13.92563248	0.6942230463	1.0
[Head]
35	0	96.17900085	16.84999847	-3.549622297	-11.22764874	0.5816041231	1.0
36	0	96.17900085	16.84999847	-2.481317282	-19.99484825	0.9506803155	1.0
37	0	96.17900085	16.84999847	-0.6196730137	-27.23573303	0.7817046642	1.0
[LeftEye]
35	30.6760006	64.09500122	92.83599854	0	0	0	1.0
36	30.6760006	64.09500122	92.83599854	0	0	0	1.0
37	30.6760006	64.09500122	92.83599854	0	0	0	1.0
[RightEye]
35	-30.6760006	64.09500122	92.83499908	0	0	0	1.0
36	-30.6760006	64.09500122	92.83499908	0	0	0	1.0
37	-30.6760006	64.09500122	92.83499908	0	0	0	1.0
[LeftShoulder]
35	45.70400238	109.4599991	-26.28000069	-0.2707035542	0.000401746569	-4.262501717	1.0
36	45.70400238	109.4599991	-26.28000069	-0.2271467149	0.0003202225489	-3.580522776	1.0
37	45.70400238	109.4599991	-26.28000069	-0.1352726966	0.0001820362086	-2.132949114	1.0
[LeftArm]
35	105.923996	-5.24600029	-22.32099915	7.894125938	0.01754178666	6.365933418	1.0
36	105.923996	-5.24600029	-22.32099915	6.631072521	0.01382443774	5.347410679	1.0
37	105.923996	-5.24600029	-22.32099915	3.936840057	0.007724630646	3.185567379	1.0
[LeftForeArm]
35	278.414978	-0.0009999999311	0	-1.589178282e-06	-33.61111832	-0.000204376789	1.0
36	278.414978	-0.0009999999311	0	-5.324134236e-07	-56.40455627	-0.0002045228321	1.0
37	278.414978	-0.0009999999311	0	-1.781427841e-07	-76.34130096	-0.0002014557103	1.0
[LeftHand]
35	283.2879944	0	0	-7.682765484	-2.244611025	7.774900913	1.0
36	283.2879944	0	0	-7.396596909	-2.261165142	7.069140434	1.0
37	283.2879944	0	0	-6.789175034	-2.296295404	5.57071209	1.0
[LeftHandThumb1]
35	24.6609993	-15.75	26.8239994	-9.137842178	-5.457510471	8.103619576	1.0
36	24.6609993	-15.75	26.8239994	-8.717611313	-5.480217934	7.651131153	1.0
37	24.6609993	-15.75	26.8239994	-7.827078819	-5.526852608	6.688415051	1.0
[LeftHandThumb2]
35	32.29800034	-18.64699936	18.64699936	3.555136681	12.95322514	2.413202286	1.0
36	32.29800034	-18.64699936	18.64699936	4.014300823	12.87018871	2.462008238	1.0
37	32.29800034	-18.64699936	18.64699936	4.987927914	12.6928215	2.562225819	1.0
[LeftHandThumb3]
35	26.52600098	-15.31499958	15.31499958	-8.352056503	1.740831256	12.8782959	1.0
36	26.52600098	-15.31499958	15.31499958	-8.173653603	1.664255619	12.91366386	1.0
37	26.52600098	-15.31499958	15.31499958	-7.795158386	1.501412153	12.98755836	1.0
[LeftHandThumb4]
35	19.54599953	-11.28499985	11.28499985	0	0	0	1.0
36	19.54599953	-11.28499985	11.28499985	0	0	0	1.0
37	19.54599953	-11.28499985	11.28499985	0	0	0	1.0
[LeftHandIndex1]
35	91.09299469	-5.170999527	22.60099792	0.2503017187	1.826273799	5.097898006	1.0
36	91.09299469	-5.170999527	22.60099792	0.2068918198	1.96536541	3.785721779	1.0
37	91.09299469	-5.170999527	22.60099792	0.09856072813	2.25494194	0.9994044304	1.0
[LeftHandIndex2]
35	36.76399994	0	0	2.376547172e-06	4.829111731e-06	-1.314391648e-05	1.0
36	36.76399994	0	0	0	0	-7.951386796e-16	1.0
37	36.76399994	0	0	-1.918710097e-07	3.925170518e-07	8.811957173e-07	1.0
[LeftHandIndex3]
35	28.83100128	0	0	-0.00672311848	-0.2802745402	2.748267412	1.0
36	28.83100128	0	0	-0.004741330631	-0.2354480028	2.308540344	1.0
37	28.83100128	0	0	-0.002307154238	-0.1402648091	1.375216961	1.0
[LeftHandIndex4]
35	23.92700005	0	0	0	0	0	1.0
36	23.92700005	0	0	0	0	0	1.0
37	23.92700005	0	0	0	0	0	1.0
[LeftHandMiddle1]
35	95.33399963	0	0	0.2687628269	1.763472915	5.68731451	1.0
36	95.33399963	0	0	0.2236534208	1.912993908	4.280911922	1.0
37	95.33399963	0	0	0.1092491373	2.224000931	1.294446945	1.0
[LeftHandMiddle2]
35	36.98199844	0	0	-1.600286623e-07	2.684863375e-06	-6.12961594e-05	1.0
36	36.98199844	0	0	-2.085666893e-06	5.331630746e-07	-3.150196062e-05	1.0
37	36.98199844	0	0	4.65259177e-07	6.190855402e-06	-1.913167398e-05	1.0
[LeftHandMiddle3]
35	29.50900078	0	0	-0.007935424335	-0.3045151532	2.986244678	1.0
36	29.50900078	0	0	-0.005600942299	-0.2558315992	2.508444071	1.0
37	29.50900078	0	0	-0.002727569779	-0.1524175704	1.494299412	1.0
[LeftHandMiddle4]
35	28.3390007	0	0	0	0	0	1.0
36	28.3390007	0	0	0	0	0	1.0
37	28.3390007	0	0	0	0	0	1.0
[LeftHandRing1]
35	91.04499817	-0.4390000105	-18.65100098	0.2398157716	1.860917807	4.771935463	1.0
36	91.04499817	-0.4390000105	-18.65100098	0.1974319369	1.994263053	3.511871815	1.0
37	91.04499817	-0.4390000105	-18.65100098	0.09255667776	2.272022009	0.8362415433	1.0
[LeftHandRing2]
35	31.54000092	0	0	0	-1.590277359e-15	-1.590277359e-15	1.0
36	31.54000092	0	0	-2.291694955e-06	4.410213023e-06	-0.0001043433658	1.0
37	31.54000092	0	0	-1.658432893e-06	2.937422778e-06	-6.377958925e-05	1.0
[LeftHandRing3]
35	29.37700081	0	0	-0.007680379786	-0.2995716929	2.937743187	1.0
36	29.37700081	0	0	-0.005419855472	-0.2516800165	2.467699766	1.0
37	29.37700081	0	0	-0.002637754194	-0.1499375999	1.470029712	1.0
[LeftHandRing4]
35	26.47500038	0	0	0	0	0	1.0
36	26.47500038	0	0	0	0	0	1.0
37	26.47500038	0	0	0	0	0	1.0
[LeftHandPinky1]
35	80.77799988	-4.887000084	-38.06099701	0.1993191689	1.98852694	3.566214323	1.0
36	80.77799988	-4.887000084	-38.06099701	0.1612417251	2.100747585	2.498915195	1.0
37	80.77799988	-4.887000084	-38.06099701	0.06977253407	2.334992647	0.2327176332	1.0
[LeftHandPinky2]
35	36	0	0	1.844940471e-06	3.585849072e-06	-8.643660294e-07	1.0
36	36	0	0	1.590277359e-15	3.180554719e-15	7.951386796e-16	1.0
37	36	0	0	-1.537450487e-07	-2.988207655e-07	7.203050245e-08	1.0
[LeftHandPinky3]
35	21.14200211	0	0	-0.007867300883	-0.3031093478	2.97240901	1.0
36	21.14200211	0	0	-0.005549826194	-0.25463745	2.496815681	1.0
37	21.14200211	0	0	-0.002702020807	-0.151705578	1.487374187	1.0
[LeftHandPinky4]
35	19.75699997	0	0	0	0	0	1.0
36	19.75699997	0	0	0	0	0	1.0
37	19.75699997	0	0	0	0	0	1.0
[RightShoulder]
35	-45.70000076	109.4620056	-26.28000069	-0.2706954181	-0.0004021032946	4.262505531	1.0
36	-45.70000076	109.4620056	-26.28000069	-0.2271371782	-0.0003236448974	3.580525875	1.0
37	-45.70000076	109.4620056	-26.28000069	-0.1352672279	-0.0001701867586	2.132953405	1.0
[RightArm]
35	-105.9280014	-5.248000145	-22.32099915	7.894111633	-0.01750794053	-6.365870953	1.0
36	-105.9280014	-5.248000145	-22.32099915	6.631055355	-0.01376991626	-5.347329617	1.0
37	-105.9280014	-5.248000145	-22.32099915	3.936830521	-0.007659126073	-3.185461283	1.0
[RightForeArm]
35	-278.414978	0	0	-6.533683177e-07	33.61093903	-1.564590377e-07	1.0
36	-278.414978	0	0	-5.930476163e-07	56.40438843	-2.014993925e-06	1.0
37	-278.414978	0	0	-2.914970025e-07	76.34113312	7.738586646e-06	1.0
[RightHand]
35	-283.2879944	0	0.0009999999311	-6.472054005	2.194962978	-7.015872002	1.0
36	-283.2879944	0	0.0009999999311	-6.18569088	2.20772934	-6.310369015	1.0
37	-283.2879944	0	0.0009999999311	-5.577870369	2.234813213	-4.812568665	1.0
[RightHandPinky1]
35	-80.76699829	-4.885000229	-38.06000137	0.2049807012	-1.928271413	-4.272187233	1.0
36	-80.76699829	-4.885000229	-38.06000137	0.1681890339	-2.018337011	-3.202833652	1.0
37	-80.76699829	-4.885000229	-38.06000137	0.08155557513	-2.205755472	-0.9324696064	1.0
[RightHandPinky2]
35	-36	0	0.0009999999311	1.164667538e-06	0.001583911246	1.290870841e-06	1.0
36	-36	0	0.0009999999311	1.33343633e-06	0.001586722909	-7.195006333e-07	1.0
37	-36	0	0.0009999999311	5.939396033e-07	0.001590522239	-1.777812372e-06	1.0
[RightHandPinky3]
35	-21.14200211	0	0	-0.006266080774	0.2411033213	-2.978079081	1.0
36	-21.14200211	0	0	-0.004420900717	0.2025499493	-2.501579285	1.0
37	-21.14200211	0	0	-0.002151608001	0.1206611544	-1.490212083	1.0
[RightHandPinky4]
35	-19.75699997	0	0	0	0	0	1.0
36	-19.75699997	0	0	0	0	0	1.0
37	-19.75699997	0	0	0	0	0	1.0
[RightHandRing1]
35	-91.03599548	-0.4390000105	-18.65100098	0.2445174754	-1.824117899	-5.480248451	1.0
36	-91.03599548	-0.4390000105	-18.65100098	0.2031519562	-1.931281805	-4.217721462	1.0
37	-91.03599548	-0.4390000105	-18.65100098	0.1033664942	-2.153690338	-1.537121773	1.0
[RightHandRing2]
35	-31.54000092	0	0	2.613693937e-07	1.972361133e-06	5.281574704e-05	1.0
36	-31.54000092	0	0	-8.979560562e-07	-4.250511836e-07	-3.315584962e-08	1.0
37	-31.54000092	0	0	-5.034208925e-07	-3.740190664e-07	-7.740824913e-06	1.0
[RightHandRing3]
35	-29.37700081	0	0	-0.0061186729	0.2382818162	-2.943338633	1.0
36	-29.37700081	0	0	-0.004323453642	0.200198561	-2.472405195	1.0
37	-29.37700081	0	0	-0.002104794839	0.1192622259	-1.472833633	1.0
[RightHandRing4]
35	-26.47500038	0	0	0	0	0	1.0
36	-26.47500038	0	0	0	0	0	1.0
37	-26.47500038	0	0	0	0	0	1.0
[RightHandMiddle1]
35	-95.32500458	0	0	0.2730846703	-1.745689988	-6.39743042	1.0
36	-95.32500458	0	0	0.2286791056	-1.865983486	-4.988258362	1.0
37	-95.32500458	0	0	0.1194324121	-2.115171909	-1.996199608	1.0
[RightHandMiddle2]
35	-36.98199844	0	0	9.74302111e-07	-1.067236462e-05	2.18859841e-05	1.0
36	-36.98199844	0	0	1.146532668e-06	5.731998499e-06	5.759586929e-05	1.0
37	-36.98199844	0	0	5.899935331e-07	4.231090315e-06	3.180920976e-05	1.0
[RightHandMiddle3]
35	-29.50900078	0	0	-0.006328026764	0.2401993722	-2.991954803	1.0
36	-29.50900078	0	0	-0.004462646786	0.2014641315	-2.51322794	1.0
37	-29.50900078	0	0	-0.002171442378	0.119205758	-1.497149348	1.0
[RightHandMiddle4]
35	-28.3390007	0	0.0009999999311	0	0	0	1.0
36	-28.3390007	0	0.0009999999311	0	0	0	1.0
37	-28.3390007	0	0.0009999999311	0	0	0	1.0
[RightHandIndex1]
35	-91.08300018	-5.167999744	22.60099792	0.254835695	-1.796241045	-5.806838989	1.0
36	-91.08300018	-5.167999744	22.60099792	0.2123411596	-1.908077121	-4.492090702	1.0
37	-91.08300018	-5.167999744	22.60099792	0.1091353819	-2.140001535	-1.70058763	1.0
[RightHandIndex2]
35	-36.76399994	0	0	-1.734577268e-06	4.381526651e-06	2.97396673e-05	1.0
36	-36.76399994	0	0	-4.723873417e-07	1.558162467e-06	1.331949352e-05	1.0
37	-36.76399994	0	0	-1.809564054e-07	5.438008657e-07	5.291398793e-06	1.0
[RightHandIndex3]
35	-28.83100128	0	0	-0.005356112029	0.2229288816	-2.753507853	1.0
36	-28.83100128	0	0	-0.00377807254	0.1872748435	-2.31294179	1.0
37	-28.83100128	0	0	-0.001838593744	0.1115671918	-1.377838135	1.0
[RightHandIndex4]
35	-23.92700005	0	0	0	0	0	1.0
36	-23.92700005	0	0	0	0	0	1.0
37	-23.92700005	0	0	0	0	0	1.0
[RightHandThumb1]
35	-24.64799881	-15.72700024	26.82600021	-10.17063904	7.472587109	-7.953481197	1.0
36	-24.64799881	-15.72700024	26.82600021	-9.748490334	7.497270107	-7.486415863	1.0
37	-24.64799881	-15.72700024	26.82600021	-8.853485107	7.547581673	-6.492990494	1.0
[RightHandThumb2]
35	-32.29800034	-18.64699936	18.64699936	4.221404076	-14.61425495	-3.504513025	1.0
36	-32.29800034	-18.64699936	18.64699936	4.682190418	-14.53328705	-3.552267551	1.0
37	-32.29800034	-18.64699936	18.64699936	5.659221649	-14.36041641	-3.650316715	1.0
[RightHandThumb3]
35	-26.52600098	-15.31399918	15.31399918	-5.066978931	-7.208141804	-13.8999691	1.0
36	-26.52600098	-15.31399918	15.31399918	-4.88812542	-7.129476547	-13.95212555	1.0
37	-26.52600098	-15.31399918	15.31399918	-4.50892067	-6.961937428	-14.06155205	1.0
[RightHandThumb4]
35	-19.54599953	-11.28499985	11.28499985	0	0	0	1.0
36	-19.54599953	-11.28499985	11.28499985	0	0	0	1.0
37	-19.54599953	-11.28499985	11.28499985	0	0	0	1.0
[LeftUpLeg]
35	82.07800293	-67.51699829	-15.99599934	-18.3389492	-1.113998532	0.9449537396	1.0
36	82.07800293	-67.51699829	-15.99599934	-20.09503174	-1.074719667	1.053699732	1.0
37	82.07800293	-67.51699829	-15.99599934	-22.0927124	-1.016031146	1.216759443	1.0
[LeftLeg]
35	0	-443.7049866	2.845999956	99.79094696	-0.2727122605	1.149164438	1.0
36	0	-443.7049866	2.845999956	97.35490417	-0.2462003827	1.279039025	1.0
37	0	-443.7049866	2.845999956	93.55047607	-0.1644105166	1.359927177	1.0
[LeftFoot]
35	0	-444.2789917	-29.8219986	-40.55202103	-0.3950753212	-1.45039022	1.0
36	0	-444.2789917	-29.8219986	-38.45713806	-0.3592397273	-1.418628812	1.0
37	0	-444.2789917	-29.8219986	-35.98618317	-0.3023652732	-1.311210275	1.0
[LeftToeBase]
35	0	-87.28699493	107.1060028	-42.86978149	7.486023605e-07	4.030098637e-07	1.0
36	0	-87.28699493	107.1060028	-39.94725037	-1.209957361e-07	-1.494346313e-09	1.0
37	0	-87.28699493	107.1060028	-36.26290512	-2.15106283e-07	7.87313752e-08	1.0
[RightUpLeg]
35	-82.07800293	-67.51699829	-15.99599934	-74.60476685	0.4578379989	0.559091568	1.0
36	-82.07800293	-67.51699829	-15.99599934	-68.87217712	0.6460556984	0.7626222968	1.0
37	-82.07800293	-67.51699829	-15.99599934	-61.94202805	0.8440836668	0.9976196289	1.0
[RightLeg]
35	0	-443.7049866	2.861999989	63.42949295	-0.5356580615	-1.230109811	1.0
36	0	-443.7049866	2.861999989	52.94694138	-0.762247622	-1.133299351	1.0
37	0	-443.7049866	2.861999989	40.47335052	-0.9867780209	-0.9391751885	1.0
[RightFoot]
35	0	-444.2770081	-29.83799934	14.73975754	-0.1146550328	0.4619532526	1.0
36	0	-444.2770081	-29.83799934	20.13570023	-0.1084180325	0.3433211446	1.0
37	0	-444.2770081	-29.83799934	25.69804382	-0.07796400785	0.1959635615	1.0
[RightToeBase]
35	0	-87.28699493	107.1060028	-1.515573604e-05	-2.909377805e-08	-1.999551955e-07	1.0
36	0	-87.28699493	107.1060028	-1.515573604e-05	-2.909377805e-08	-1.999551955e-07	1.0
37	0	-87.28699493	107.1060028	-1.515573604e-05	-2.909377805e-08	-1.999551955e-07	1.0
[EndOfFile]
